<svg width="20" height="20" viewBox="0 0 20 20" fill="none" xmlns="http://www.w3.org/2000/svg">
    <path d="M10 20C15.5228 20 20 15.5228 20 10C20 4.47715 15.5228 0 10 0C4.47715 0 0 4.47715 0 10C0 15.5228 4.47715 20 10 20Z" fill="#171732" />
    <path d="M13.5711 12.6822L7.31819 6.42921C7.08114 6.19217 6.69681 6.19217 6.45976 6.42921L6.42936 6.45962C6.19231 6.69667 6.19231 7.081 6.42936 7.31805L12.6823 13.571C12.9194 13.808 13.3037 13.808 13.5407 13.571L13.5711 13.5406C13.8082 13.3035 13.8082 12.9192 13.5711 12.6822Z" fill="#EEEEEE" />
    <path d="M12.6822 6.42883L6.42921 12.6818C6.19217 12.9188 6.19217 13.3032 6.42921 13.5402L6.45962 13.5706C6.69667 13.8077 7.081 13.8077 7.31805 13.5706L13.571 7.31767C13.808 7.08062 13.808 6.69629 13.571 6.45924L13.5406 6.42883C13.3035 6.19179 12.9192 6.19179 12.6822 6.42883Z" fill="#EEEEEE" />
</svg>