<svg id="Layer_1" data-name="Layer 1" xmlns="http://www.w3.org/2000/svg" xmlns:xlink="http://www.w3.org/1999/xlink" viewBox="0 0 944.5 204.7"><defs><style>.cls-1{fill:#171732;}.cls-2{fill:url(#linear-gradient);}</style><linearGradient id="linear-gradient" x1="24.85" y1="267.33" x2="317.29" y2="267.33" gradientUnits="userSpaceOnUse"><stop offset="0" stop-color="#0301f7"/><stop offset="0.13" stop-color="#2301ea"/><stop offset="0.33" stop-color="#5001d8"/><stop offset="0.52" stop-color="#7300ca"/><stop offset="0.7" stop-color="#8c00c0"/><stop offset="0.87" stop-color="#9c00ba"/><stop offset="1" stop-color="#a100b8"/></linearGradient></defs><g id="VTHqXA.tif"><path class="cls-1" d="M803.1,272.8l7.3,7.6c2.4,2.5,4.9,4.8,7.4,7.2l8,8c2.1,2.2,4.3,4.2,6.4,6.3a2,2,0,0,1,.6,1.3c.1,2.5.1,5,.1,7.5s-.4,1.6-1.7,1.6c-6.2-.1-12.5-.2-18.8,0a6.4,6.4,0,0,1-5.1-2.4l-3.5-3.6-4.8-4.9-5.8-5.5c-1.2-1.1-2.2-2.4-3.4-3.6s-2.3-2.3-3.5-3.4l-4.7-4.8-3.7-3.4a24.2,24.2,0,0,1-3.2-3.2c-1.5-2.2-3.4-2.9-6.1-2.9H732.8c-1.4,0-2,.7-2,2.3v33.6c.1,1.2-.4,1.6-1.7,1.6h-19c-2.1,0-2.7-.5-2.7-2.7V189.2a4,4,0,0,1,.5-2.2,2.5,2.5,0,0,1,1.8-1h81.6c2.3.3,4.6.5,6.9,1a26.5,26.5,0,0,1,4.4,1.7,31.9,31.9,0,0,1,3.3,1.1l5.6,2.9c1.7,1.1,3.4,2.1,5,3.3a42.5,42.5,0,0,1,3.9,3.5,40.2,40.2,0,0,1,3.4,3.8c1,1.4,1.9,2.9,2.8,4.4s2,3.2,2.9,4.8a17,17,0,0,1,.9,2.4,44.3,44.3,0,0,0,1.3,4.9c1.2,2.9,1,5.9,1.1,8.9a49.3,49.3,0,0,1-.3,9.4c-.5,3-1.8,6-2.8,9a33.5,33.5,0,0,1-2.3,5.5,36.9,36.9,0,0,1-4,5.5,44.3,44.3,0,0,1-5.1,5.5,40.4,40.4,0,0,1-5.4,3.8c-.3.2-.4.6-.7.8l-4.1,2.2ZM762,209.5H733c-2.2,0-2.2,0-2.2,2.2v38c0,1.9.5,2.5,2.4,2.5h45.6c4.9,0,9.8.4,14.6-.9a30.3,30.3,0,0,0,4.3-1.2,21.9,21.9,0,0,0,4.8-3.1,29.8,29.8,0,0,0,3.8-4.1,27.4,27.4,0,0,0,2.3-3.6,9.3,9.3,0,0,0,1.5-3.2c.2-4.4,1.1-8.9-.8-13.2a12.6,12.6,0,0,0-1.8-3.2,49.1,49.1,0,0,0-4.3-4.8,13.3,13.3,0,0,0-3-2.3,25.8,25.8,0,0,0-3.9-1.4c-1.8-.5-3.6-1.5-5.4-1.5Z" transform="translate(-24.8 -165)"/><path class="cls-1" d="M843.9,249V188.7c0-2.7,0-2.7,2.6-2.7h76.7a76,76,0,0,1,10.7.9,30.9,30.9,0,0,1,5.1,1.8,21.7,21.7,0,0,1,3.6,1.2,58.9,58.9,0,0,1,6.4,3.7c2.4,1.7,4.8,3.6,7.1,5.5a25.2,25.2,0,0,1,3,3.5,57.1,57.1,0,0,1,3.8,4.8,50.8,50.8,0,0,1,2.3,4.7,43.2,43.2,0,0,1,1.9,4.5,10.7,10.7,0,0,1,1,3.6c.7,4.3,1.7,8.6,1.1,13.1-.3,2.6-.6,5.3-1.1,7.9a43.9,43.9,0,0,1-2.1,6.1c-.7,1.7-2.1,3.2-2.6,5s-2.3,3.5-3.4,5.2a26.5,26.5,0,0,1-3.7,3.8,36.8,36.8,0,0,1-4.5,4.3c-1.9,1.4-4,2.6-6,3.9a30.7,30.7,0,0,1-3.1,1.7,13.3,13.3,0,0,1-2.4,1.1c-1.6.4-3.3.9-5,1.2-9.7,2.2-19.5.8-29.3,1-11.9.3-23.8.1-35.7.1h-1c-1.9,0-2,.2-2,2v33.5c0,1.7-.3,2-2,2h-20c-1,0-1.4-.4-1.4-1.3a16.1,16.1,0,0,0,0-2.2Zm53.7-39.6H869.2c-1.9,0-1.9,0-1.9,1.9v38c0,2.8,0,2.8,2.8,2.8h46.7c4-.1,8,.3,12-.7a27.9,27.9,0,0,0,8-3.2,25.1,25.1,0,0,0,6.8-6.6,21.5,21.5,0,0,0,3.1-7.7,20.3,20.3,0,0,0-1.1-10.9,7.9,7.9,0,0,0-.9-2.3,35.7,35.7,0,0,0-3-3.8,18.6,18.6,0,0,0-3.6-3.3,26.1,26.1,0,0,0-5.4-2.4,23.5,23.5,0,0,0-7.3-1.7C916.1,209.3,906.9,209.4,897.6,209.4Z" transform="translate(-24.8 -165)"/><path class="cls-1" d="M571.7,302.8a37.5,37.5,0,0,0-.1-5.8c-.3-2.3.9-3.7,2.3-5.1l5.8-5.6,6.9-6.7,6.5-6.7,3.7-3.5c1.5-1.4,2.9-3,4.3-4.4l3.9-3.7,4.4-4.5,5.7-5.6c.7-.8,1.5-1.4,2.2-2.2a1.1,1.1,0,0,0,0-.8l-3.5-3.2-4.3-4.5c-1.3-1.3-2.7-2.4-3.9-3.7s-2.2-2.3-3.3-3.4-3.3-3.1-4.8-4.8l-4.5-4.7-5.7-5.4-5.4-5.4-5.7-5.7c-1.3-1.3-2.6-2.6-3.8-4a2.6,2.6,0,0,1-.7-1.7c-.1-4.7,0-9.3-.1-14,0-1.1.3-1.7,1.6-1.7H587a1.9,1.9,0,0,1,2.1,1.3c.4,1,1.5,1.6,2.3,2.4s3.9,4.1,5.9,6,2.8,2.6,4.1,4l4.1,4.3c1.5,1.4,3.1,2.6,4.5,4.1,3.7,3.6,7.2,7.3,10.9,10.9s4.7,4.4,7.1,6.7,3.2,3.1,4.7,4.7,1.7,1.6,3.1.1l7.1-7c1.8-1.9,3.5-4,5.4-5.8s4-3.6,5.8-5.5,3.6-3.9,5.4-5.7l5.5-5.2c1.6-1.6,3.1-3.3,4.7-4.8l4.8-4.4c1.4-1.5,2.8-3,4.3-4.4a6.3,6.3,0,0,1,3.2-1.7c4.4-.2,8.9,0,13.4-.1,1.3,0,1.7.5,1.6,1.8v13.5c.1,1.9-1.4,2.7-2.4,3.8s-4.6,4.7-6.9,7l-6.2,6.2-7.1,7.2c-2.8,2.7-5.7,5.3-8.5,8.1-.9.9-1.6,2.3-2.7,2.9s-3.4,3.2-5.1,4.7a72.8,72.8,0,0,0-6.7,6.9c-1,1.1.6,1.5,1,1.9a82.1,82.1,0,0,0,5.9,5.9l5.5,5.4,5.8,6,5.8,5.3c1.8,1.8,3.6,3.8,5.4,5.7s2.3,2.2,3.4,3.4l5.8,5.9c1.8,1.8,3.6,3.6,5.5,5.2a3.8,3.8,0,0,1,1.5,3.4c-.1,4.7,0,9.5,0,14.3.1,1.2-.3,1.7-1.6,1.7H683.5c-1.9.1-2.7-1.2-3.8-2.2s-4.2-4.4-6.3-6.5l-8-7.8c-2.9-2.8-5.4-5.9-8.5-8.4s-6.5-6.4-9.8-9.5-4.6-4.6-6.9-6.8-3.5-3.6-5.4-5.3a1.7,1.7,0,0,0-1.8.2c-1.7,1.5-3.2,3.1-4.7,4.7s-3,3.2-4.6,4.7l-5.8,5.5-3.3,3.5c-1.9,1.8-3.8,3.7-5.6,5.6l-3.6,3.6-4.9,4.6-3.2,3.3-3.6,3.8c-1.6,1.6-3.1,3.3-4.8,4.8s-2.4,2.3-4.5,2.2c-3.7-.2-7.4,0-11.2,0-1.2,0-1.6-.5-1.6-1.6.1-2.6,0-5.2,0-7.8Z" transform="translate(-24.8 -165)"/><path class="cls-1" d="M388.7,222.6c5.1,0,10.1-.2,15.2,0a20.1,20.1,0,0,1,7.1,1.8l3.9,1.3,5.1,2.6a39.1,39.1,0,0,1,4.4,2.6,17.9,17.9,0,0,1,2.5,2.3c2.3,2.2,4.6,4.5,6.8,6.9a16.3,16.3,0,0,1,2.3,3.5c1,1.9,2,3.7,2.9,5.6a31,31,0,0,1,1.3,4c.7,2.2,1.7,4.3,1.8,6.6.2,4.9.1,9.9-.1,14.9a18,18,0,0,1-.8,3.9,19,19,0,0,1-1.2,3.6,37.3,37.3,0,0,1-3.6,7.2c-.9,1.4-1.4,3-2.3,4.3a19,19,0,0,1-2.4,2.5c-1.3,1.4-2.5,3-3.8,4.3a26,26,0,0,1-3.2,2.6l-4.1,2.8a8.8,8.8,0,0,1-2.1,1.2l-6.2,2.2a34.1,34.1,0,0,1-5,1.9c-1.4.3-3,0-4.4.2-8.1,1.7-16.3.5-24.5.7a30.8,30.8,0,0,1-8-1,31.3,31.3,0,0,1-6.8-2,57,57,0,0,1-6.9-3.7,43.9,43.9,0,0,1-5-3.4,51.9,51.9,0,0,1-5.3-5.2c-1.7-2-3.3-4.1-4.8-6.2a26.7,26.7,0,0,1-2.2-4.5l-3-7a1.3,1.3,0,0,1-.1-.6,62.9,62.9,0,0,1-1.1-13.7,24.8,24.8,0,0,1,.2-3.9,58.7,58.7,0,0,1,1.6-6c.4-1.3.9-2.6,1.2-3.9s1.5-2.7,1.8-4.1,1.7-2.9,2.5-4.4a32.1,32.1,0,0,1,4.3-5.6,54.4,54.4,0,0,1,4.8-4.8,26.4,26.4,0,0,1,3.5-2.3c2-1.3,4-2.6,6.1-3.8a14.5,14.5,0,0,1,2.9-1.1c1.4-.4,2.9-.9,4.4-1.2a30.3,30.3,0,0,1,8-1.2h12.3Zm1,66.3c4.3-.4,9.5.9,14.5-1.1a17.9,17.9,0,0,0,3.2-1.3,12.2,12.2,0,0,0,3.7-2.7c1.4-1.7,3.1-3.1,4.5-4.8s.7-2,1.3-2.9a10.7,10.7,0,0,0,1.9-6v-7.7c-.1-.3,0-.6-.1-.9-.9-1.9-2-3.8-2.8-5.8A12.8,12.8,0,0,0,412,251c-1.3-1.2-2.3-2.8-4.4-3.2s-2.4-1.4-3.8-1.6a39.6,39.6,0,0,0-7.7-1H379.2c-2,.1-3.9.6-5.9.9l-.3.2a10.5,10.5,0,0,1-2.9,1.6c-2.3.5-3.8,2.2-5.3,3.5a16.2,16.2,0,0,0-4.5,6.6c-.7,2.1-1.8,4-1.7,6.3v6.6a7.7,7.7,0,0,0,.2,1.5c.6,1.3,1.1,2.7,1.7,4a15.7,15.7,0,0,0,1.8,3.1c1,1.3,2.4,2.4,3.4,3.7s4.4,3.4,6.9,4.4a16.1,16.1,0,0,0,7.6,1.3C383,288.7,386,288.9,389.7,288.9Z" transform="translate(-24.8 -165)"/><path class="cls-1" d="M477,227.4l4.1-1.8,4.2-1.7h.3c2.3-.4,4.7-1.2,7.1-1.2h29.4a19.5,19.5,0,0,1,3.1.7l1.4.3a21.3,21.3,0,0,1,7.8,2.7,47.4,47.4,0,0,0,5.1,2.4c.4.2.7.7,1.1,1l6.6,5.1c1.1,1,2,2.2,3,3.3l3.9,5.1a11.4,11.4,0,0,1,1.2,2.2c1,2.1,2,4.1,2.9,6.2s.7,2.1,1,3.1,1.2,4.4,1.2,6.6c.1,16.1.1,32.3.1,48.5,0,2.4,0,2.4-2.4,2.4h-19a2,2,0,0,1-2-1.9c.1-3.6.1-7.2.1-10.8.1-8.9,0-17.9.1-26.9,0-1.1.3-2.3.4-3.4a2.4,2.4,0,0,0,0-1.2c-.2-1.4-.6-2.8-.7-4.2a12.4,12.4,0,0,0-1.8-6,38.1,38.1,0,0,0-2.3-4,20.3,20.3,0,0,0-13.9-8c-7.3-1.4-14.6-.5-21.9-.5a23,23,0,0,0-6.6,1.4,26.5,26.5,0,0,0-7.2,4.5,14.5,14.5,0,0,0-3.3,4.1,39.8,39.8,0,0,0-2.4,5.1c-1.1,3.3-.9,6.5-.9,9.7-.2,12.7-.1,25.4-.1,38.1v1.3c-.2,1.9-1.1,2.7-2.8,2.7H455.1c-1.5,0-1.7-.6-1.7-1.8V223.8c-.1-1,.2-1.4,1.3-1.4h20c1.4,0,1.7.9,1.5,2.3S476.7,226.5,477,227.4Z" transform="translate(-24.8 -165)"/></g><path class="cls-2" d="M74.7,369.7H74a18.6,18.6,0,0,1-13.4-6.4,146,146,0,0,1,.2-191.8,18.6,18.6,0,0,1,27.2-1l55.4,54.9a39.5,39.5,0,0,0,55.3,0l55.4-54.9A18.9,18.9,0,0,1,268,165a18.6,18.6,0,0,1,13.3,6.4,146,146,0,0,1,.2,191.8,18.4,18.4,0,0,1-13.3,6.4,18.8,18.8,0,0,1-13.9-5.3l-55.6-55.1a39.2,39.2,0,0,0-55.3,0L87.8,364.3A18.9,18.9,0,0,1,74.7,369.7Zm-3.4-22.1Zm8.3-152.5a5.4,5.4,0,0,0-8.2.7,122.8,122.8,0,0,0-.2,143.1,5.4,5.4,0,0,0,8.2.7l47.5-47.1a62.9,62.9,0,0,1,88.3,0l47.5,47.1a5.4,5.4,0,0,0,8.2-.7,123,123,0,0,0-.1-143.1,5.5,5.5,0,0,0-8.3-.7l-47.3,46.8a62.7,62.7,0,0,1-88.3,0Z" transform="translate(-24.8 -165)"/></svg>