<svg width="158" height="29" viewBox="0 0 158 29" fill="none" xmlns="http://www.w3.org/2000/svg">
<path d="M7.52107 28.8958C7.42737 28.8958 7.42737 28.8958 7.33367 28.8958C6.39669 28.8021 5.45971 28.4273 4.89753 27.6777C1.99289 24.0235 0.400024 19.4323 0.400024 14.7474C0.400024 10.0625 1.99289 5.47128 4.89753 1.81706C5.45971 1.06748 6.39669 0.598989 7.33367 0.598989C8.27065 0.505291 9.20763 0.880082 9.95722 1.62967L17.5468 9.2192C19.4207 11.0932 22.419 11.0932 24.293 9.2192L31.8825 1.62967C32.5384 0.97378 33.4754 0.598989 34.5061 0.598989C35.4431 0.692687 36.38 1.06748 36.9422 1.81706C39.8469 5.47128 41.4397 10.0625 41.4397 14.6537C41.4397 19.3386 39.8469 23.9298 36.9422 27.4903C36.38 28.2399 35.4431 28.7084 34.5061 28.7084C33.5691 28.8021 32.6321 28.4273 31.8825 27.6777L24.293 20.0882C22.419 18.2142 19.4207 18.2142 17.5468 20.0882L9.95722 27.6777C9.20763 28.521 8.36435 28.8958 7.52107 28.8958ZM7.52107 3.50363C7.42737 3.50363 7.42737 3.50363 7.52107 3.50363C7.42737 3.50363 7.23998 3.50362 7.14628 3.69102C4.61643 6.78305 3.21096 10.7184 3.21096 14.7474C3.21096 18.7764 4.61643 22.618 7.14628 25.8037C7.23998 25.8974 7.33367 25.9911 7.42737 25.9911C7.52107 25.9911 7.61477 25.9911 7.80216 25.8974L15.3917 18.3079C18.39 15.3096 23.2623 15.3096 26.2607 18.3079L33.8502 25.8974C33.9439 25.9911 34.1313 25.9911 34.225 25.9911C34.3187 25.9911 34.4124 25.9911 34.5061 25.8037C37.0359 22.7117 38.4414 18.7764 38.4414 14.7474C38.4414 10.7184 37.0359 6.87675 34.5061 3.69102C34.4124 3.59732 34.3187 3.50363 34.225 3.50363C34.1313 3.50363 34.0376 3.50362 33.8502 3.59732L26.2607 11.1869C24.7615 12.686 22.7938 13.4356 20.8262 13.4356C18.8585 13.4356 16.8909 12.686 15.3917 11.1869L7.80216 3.59732C7.70846 3.50362 7.52107 3.50363 7.52107 3.50363Z" fill="url(#paint0_linear_244_12)"/>
<path d="M107.497 12.3113L101.032 5.93982H98.6891V8.18857L105.154 14.6537L98.6891 21.0252V23.4613H100.844L107.497 16.9025L114.149 23.4613H116.304V21.0252L109.839 14.6537L116.304 8.18857V5.93982H113.962L107.497 12.3113Z" fill="#171733"/>
<path d="M73.9529 11.749C73.016 11.1869 71.8916 10.9058 70.7672 10.9058H68.2374C67.113 10.9058 66.0823 11.1869 65.0516 11.749C64.1147 12.3112 63.2714 13.0608 62.8029 13.9978C62.2407 14.9348 61.9596 16.0591 61.9596 17.1835C61.9596 18.3079 62.2407 19.3386 62.8029 20.3693C63.3651 21.3062 64.1147 22.1495 65.0516 22.618C65.9886 23.1802 67.113 23.4613 68.2374 23.4613H70.7672C71.8916 23.4613 72.9223 23.1802 73.9529 22.618C74.8899 22.0558 75.7332 21.3062 76.2017 20.3693C76.7639 19.4323 77.045 18.3079 77.045 17.1835C77.045 16.0591 76.7639 15.0285 76.2017 13.9978C75.7332 13.0608 74.9836 12.3112 73.9529 11.749ZM72.9223 19.3386C72.3601 19.9008 71.6105 20.2756 70.7672 20.2756H68.2374C67.3941 20.2756 66.7382 19.9945 66.0823 19.3386C65.5201 18.7764 65.1453 18.0268 65.1453 17.1835C65.1453 16.3402 65.4264 15.5907 66.0823 15.0285C66.6445 14.4663 67.3941 14.1852 68.2374 14.1852H70.7672C71.6105 14.1852 72.2664 14.4663 72.9223 15.0285C73.4844 15.5907 73.8592 16.3402 73.8592 17.1835C73.8592 18.0268 73.5781 18.7764 72.9223 19.3386Z" fill="#171733"/>
<path d="M157.157 9.03185C156.595 8.09487 155.845 7.34529 154.908 6.7831C153.971 6.22091 152.94 5.93982 151.816 5.93982H140.479V23.4613H143.758V18.308H151.816C152.94 18.308 153.971 18.0269 154.908 17.4647C155.845 16.9025 156.595 16.1529 157.157 15.2159C157.719 14.2789 158 13.1546 158 12.1239C158 10.9995 157.719 9.96883 157.157 9.03185ZM154.346 13.6231C154.065 14.0915 153.69 14.4663 153.221 14.7474C152.753 15.0285 152.191 15.1222 151.722 15.1222H143.664V9.21925H151.722C152.284 9.21925 152.753 9.31295 153.221 9.59404C153.69 9.87514 154.065 10.1562 154.346 10.6247C154.627 11.0932 154.814 11.5617 154.814 12.0302C154.814 12.5924 154.627 13.1546 154.346 13.6231Z" fill="#171733"/>
<path d="M136.262 15.2159C136.824 14.2789 137.105 13.1546 137.105 12.1239C137.105 10.9995 136.824 9.96883 136.262 9.03185C135.7 8.09487 134.95 7.34529 134.013 6.7831C133.076 6.22091 132.046 5.93982 130.921 5.93982H119.584V23.4613H122.863V18.308H128.672L133.92 23.4613H137.199V22.1496L132.983 17.9332C133.357 17.8395 133.732 17.6521 134.107 17.4647C134.95 16.9025 135.7 16.1529 136.262 15.2159ZM133.545 13.6231C133.264 14.0915 132.889 14.4663 132.42 14.7474C131.952 15.0285 131.483 15.1222 130.921 15.1222H122.769V9.21925H130.827C131.39 9.21925 131.858 9.31295 132.327 9.59404C132.795 9.87514 133.17 10.1562 133.451 10.6247C133.732 11.0932 133.92 11.5617 133.92 12.0302C134.013 12.5924 133.826 13.1546 133.545 13.6231Z" fill="#171733"/>
<path d="M92.3177 11.749C91.3807 11.1869 90.2563 10.9058 89.132 10.9058H86.6021C85.4777 10.9058 84.4471 11.1869 83.6038 11.6553V10.9058H80.3243V23.4613H83.6038V17.1835C83.6038 16.3402 83.8849 15.6844 84.4471 15.0285C85.0092 14.4663 85.7588 14.1852 86.6021 14.1852H89.132C89.9752 14.1852 90.7248 14.4663 91.287 15.0285C91.8492 15.5907 92.1303 16.3402 92.1303 17.1835V23.4613H95.4097V17.1835C95.4097 16.0591 95.1286 15.0285 94.5664 13.9978C94.0979 13.0608 93.2547 12.3112 92.3177 11.749Z" fill="#171733"/>
<defs>
<linearGradient id="paint0_linear_244_12" x1="0.286931" y1="14.7403" x2="41.3894" y2="14.7403" gradientUnits="userSpaceOnUse">
<stop stop-color="#0301F7"/>
<stop offset="0.13" stop-color="#2301EA"/>
<stop offset="0.33" stop-color="#5001D8"/>
<stop offset="0.52" stop-color="#7300CA"/>
<stop offset="0.7" stop-color="#8C00C0"/>
<stop offset="0.87" stop-color="#9C00BA"/>
<stop offset="1" stop-color="#A100B8"/>
</linearGradient>
</defs>
</svg>
