<svg width="33" height="33" viewBox="0 0 33 33" fill="none" xmlns="http://www.w3.org/2000/svg">
<path d="M16.5 33C25.6127 33 33 25.6127 33 16.5C33 7.3873 25.6127 0 16.5 0C7.3873 0 0 7.3873 0 16.5C0 25.6127 7.3873 33 16.5 33Z" fill="black"/>
<path d="M9.84773 23.3906C9.81673 23.3906 9.7857 23.3906 9.75654 23.3889C9.27687 23.3639 8.83003 23.1391 8.52911 22.7736C7.07009 20.999 6.26581 18.7715 6.26581 16.4994C6.26581 14.2273 7.07009 12.0015 8.52911 10.2252C8.82824 9.85961 9.27687 9.63667 9.75654 9.60994C10.2362 9.58496 10.7104 9.76153 11.0496 10.095L14.8267 13.7885C15.7495 14.691 17.2523 14.691 18.1751 13.7885L21.9504 10.095C22.2914 9.76153 22.7638 9.58496 23.2434 9.60994C23.7231 9.63492 24.1699 9.85961 24.4708 10.2252C25.9299 12.0015 26.7342 14.2291 26.7342 16.4994C26.7342 18.7697 25.9299 20.9972 24.4708 22.7736C24.1699 23.1391 23.7231 23.3639 23.2434 23.3889C22.762 23.4138 22.2896 23.2373 21.9504 22.9055L18.1733 19.212C17.2505 18.3096 15.7477 18.3096 14.8248 19.212L11.0478 22.9055C10.7286 23.2176 10.2946 23.3924 9.84589 23.3924L9.84773 23.3906ZM9.84773 11.0492C9.84773 11.0492 9.83862 11.0492 9.83495 11.0492C9.79117 11.051 9.72734 11.067 9.6763 11.1276C8.42702 12.6471 7.73945 14.5554 7.73945 16.4976C7.73945 18.4398 8.42702 20.3481 9.6763 21.8694C9.72554 21.93 9.78937 21.946 9.83495 21.9478C9.87325 21.9496 9.94439 21.9443 10.0064 21.8836L13.7835 18.1901C15.2808 16.7259 17.7192 16.7259 19.2165 18.1901L22.9936 21.8836C23.0556 21.9443 23.1286 21.9496 23.165 21.9478C23.2088 21.946 23.2726 21.93 23.3237 21.8694C24.573 20.3481 25.2605 18.4416 25.2605 16.4994C25.2605 14.5572 24.573 12.6489 23.3237 11.1294C23.2744 11.0688 23.2106 11.0527 23.165 11.051C23.1286 11.0492 23.0556 11.0545 22.9936 11.1152L19.2165 14.8087C18.467 15.5417 17.4839 15.9073 16.4991 15.9073C15.516 15.9073 14.5312 15.5417 13.7816 14.8087L10.0064 11.1134C9.9517 11.0581 9.88603 11.0492 9.84773 11.0492Z" fill="#F0EFEF"/>
</svg>
