<?xml version="1.0" encoding="utf-8"?>
<!-- Generator: Adobe Illustrator 26.1.0, SVG Export Plug-In . SVG Version: 6.00 Build 0)  -->
<svg version="1.1" id="Full_logo_light" xmlns="http://www.w3.org/2000/svg" xmlns:xlink="http://www.w3.org/1999/xlink" x="0px" y="0px"
	 viewBox="0 0 200 60" style="enable-background:new 0 0 200 60;" xml:space="preserve">
<style type="text/css">
	.st0{fill:url(#SVGID_1_);}
	.st1{fill:#171733;}
</style>
<g id="Full_logo_light_group">
	<linearGradient id="SVGID_1_" gradientUnits="userSpaceOnUse" x1="16.2793" y1="32.3076" x2="60.1463" y2="32.3076" gradientTransform="matrix(1 0 0 -1 0 62)">
		<stop  offset="0" style="stop-color:#0301F7"/>
		<stop  offset="0.13" style="stop-color:#2301EA"/>
		<stop  offset="0.33" style="stop-color:#5001D8"/>
		<stop  offset="0.52" style="stop-color:#7300CA"/>
		<stop  offset="0.7" style="stop-color:#8C00C0"/>
		<stop  offset="0.87" style="stop-color:#9C00BA"/>
		<stop  offset="1" style="stop-color:#A100B8"/>
	</linearGradient>
	<path class="st0" d="M24,44.8c-0.1,0-0.1,0-0.2,0c-1-0.1-2-0.5-2.6-1.3c-3.1-3.9-4.8-8.8-4.8-13.8s1.7-9.9,4.8-13.8
		c0.6-0.8,1.6-1.3,2.6-1.3c1-0.1,2,0.3,2.8,1.1l8.1,8.1c2,2,5.2,2,7.2,0l8.1-8.1c0.7-0.7,1.7-1.1,2.8-1.1c1,0.1,2,0.5,2.6,1.3l0,0
		c3.1,3.9,4.8,8.8,4.8,13.7c0,5-1.7,9.9-4.8,13.7c-0.6,0.8-1.6,1.3-2.6,1.3c-1,0.1-2-0.3-2.8-1.1l-8.1-8.1c-2-2-5.2-2-7.2,0
		l-8.1,8.1C25.8,44.4,24.9,44.8,24,44.8z M24,17.7C23.9,17.7,23.9,17.7,24,17.7c-0.1,0-0.3,0-0.4,0.2c-2.7,3.3-4.2,7.5-4.2,11.8
		s1.5,8.4,4.2,11.8c0.1,0.1,0.2,0.2,0.3,0.2c0.1,0,0.2,0,0.4-0.1l8.1-8.1c3.2-3.2,8.4-3.2,11.6,0l8.1,8.1c0.1,0.1,0.3,0.1,0.4,0.1
		c0.1,0,0.2,0,0.3-0.2C55.5,38.2,57,34,57,29.7s-1.5-8.4-4.2-11.8l0,0c-0.1-0.1-0.2-0.2-0.3-0.2s-0.2,0-0.4,0.1L44,25.9
		c-1.6,1.6-3.7,2.4-5.8,2.4s-4.2-0.8-5.8-2.4l-8.1-8.1C24.2,17.7,24,17.7,24,17.7z"/>
	<g>
		<polygon class="st1" points="130.7,27.1 123.8,20.3 121.3,20.3 121.3,22.7 128.2,29.6 121.3,36.4 121.3,39 123.6,39 130.7,32 
			137.8,39 140.1,39 140.1,36.4 133.2,29.6 140.1,22.7 140.1,20.3 137.6,20.3 		"/>
		<path class="st1" d="M94.9,26.5c-1-0.6-2.2-0.9-3.4-0.9l0,0h-2.7l0,0c-1.2,0-2.3,0.3-3.4,0.9c-1,0.6-1.9,1.4-2.4,2.4
			c-0.6,1-0.9,2.2-0.9,3.4c0,1.2,0.3,2.3,0.9,3.4c0.6,1,1.4,1.9,2.4,2.4c1,0.6,2.2,0.9,3.4,0.9h2.7c1.2,0,2.3-0.3,3.4-0.9
			c1-0.6,1.9-1.4,2.4-2.4c0.6-1,0.9-2.2,0.9-3.4s-0.3-2.3-0.9-3.4C96.8,27.9,96,27.1,94.9,26.5z M93.8,34.6c-0.6,0.6-1.4,1-2.3,1
			h-2.7c-0.9,0-1.6-0.3-2.3-1c-0.6-0.6-1-1.4-1-2.3c0-0.9,0.3-1.7,1-2.3c0.6-0.6,1.4-0.9,2.3-0.9h2.7c0.9,0,1.6,0.3,2.3,0.9
			c0.6,0.6,1,1.4,1,2.3C94.8,33.2,94.5,34,93.8,34.6z"/>
		<path class="st1" d="M183.7,23.6c-0.6-1-1.4-1.8-2.4-2.4s-2.1-0.9-3.3-0.9h-12.1V39h3.5v-5.5h8.6c1.2,0,2.3-0.3,3.3-0.9
			c1-0.6,1.8-1.4,2.4-2.4c0.6-1,0.9-2.2,0.9-3.3C184.6,25.7,184.3,24.6,183.7,23.6z M180.7,28.5c-0.3,0.5-0.7,0.9-1.2,1.2
			c-0.5,0.3-1.1,0.4-1.6,0.4h-8.6v-6.3h8.6c0.6,0,1.1,0.1,1.6,0.4s0.9,0.6,1.2,1.1s0.5,1,0.5,1.5C181.2,27.4,181,28,180.7,28.5z"/>
		<path class="st1" d="M161.4,30.2c0.6-1,0.9-2.2,0.9-3.3c0-1.2-0.3-2.3-0.9-3.3c-0.6-1-1.4-1.8-2.4-2.4s-2.1-0.9-3.3-0.9h-12.1V39
			h3.5v-5.5h6.2l5.6,5.5h3.5v-1.4l-4.5-4.5c0.4-0.1,0.8-0.3,1.2-0.5C160,32,160.8,31.2,161.4,30.2z M158.5,28.5
			c-0.3,0.5-0.7,0.9-1.2,1.2c-0.5,0.3-1,0.4-1.6,0.4H147v-6.3h8.6c0.6,0,1.1,0.1,1.6,0.4s0.9,0.6,1.2,1.1s0.5,1,0.5,1.5
			C159,27.4,158.8,28,158.5,28.5z"/>
		<path class="st1" d="M114.5,26.5c-1-0.6-2.2-0.9-3.4-0.9l0,0h-2.7l0,0c-1.2,0-2.3,0.3-3.2,0.8v-0.8h-3.5V39h3.5v-6.7l0,0
			c0-0.9,0.3-1.6,0.9-2.3c0.6-0.6,1.4-0.9,2.3-0.9h2.7c0.9,0,1.7,0.3,2.3,0.9c0.6,0.6,0.9,1.4,0.9,2.3l0,0V39h3.5v-6.7
			c0-1.2-0.3-2.3-0.9-3.4C116.4,27.9,115.5,27.1,114.5,26.5z"/>
	</g>
</g>
</svg>
