<svg width="33" height="33" viewBox="0 0 33 33" fill="none" xmlns="http://www.w3.org/2000/svg">
<circle cx="16.5" cy="16.5" r="16.5" fill="white"/>
<path d="M9.84995 23.9981C9.81663 23.9981 9.7833 23.9981 9.75194 23.9961C9.23639 23.9689 8.75613 23.7244 8.43268 23.3266C6.86447 21.3956 6 18.9717 6 16.4993C6 14.0269 6.86447 11.605 8.43268 9.67207C8.75417 9.27423 9.23639 9.03165 9.75194 9.00254C10.2675 8.97537 10.7772 9.16749 11.1418 9.5304L15.2015 13.5495C16.1934 14.5315 17.8086 14.5315 18.8005 13.5495L22.8582 9.5304C23.2248 9.16749 23.7325 8.97537 24.2481 9.00254C24.7636 9.02971 25.2439 9.27423 25.5673 9.67207C27.1355 11.605 28 14.0289 28 16.4993C28 18.9698 27.1355 21.3937 25.5673 23.3266C25.2439 23.7244 24.7636 23.9689 24.2481 23.9961C23.7306 24.0233 23.2228 23.8312 22.8582 23.4702L18.7985 19.4511C17.8066 18.4691 16.1914 18.4691 15.1995 19.4511L11.1398 23.4702C10.7968 23.8098 10.3302 24 9.84799 24L9.84995 23.9981ZM9.84995 10.5687C9.84995 10.5687 9.84015 10.5687 9.83623 10.5687C9.78918 10.5706 9.72057 10.5881 9.66569 10.654C8.32291 12.3075 7.58389 14.384 7.58389 16.4974C7.58389 18.6108 8.32291 20.6873 9.66569 22.3427C9.71861 22.4087 9.78722 22.4261 9.83623 22.4281C9.87739 22.43 9.95384 22.4242 10.0205 22.3582L14.0802 18.3391C15.6896 16.7458 18.3104 16.7458 19.9198 18.3391L23.9795 22.3582C24.0462 22.4242 24.1246 22.43 24.1638 22.4281C24.2108 22.4261 24.2794 22.4087 24.3343 22.3427C25.6771 20.6873 26.4161 18.6127 26.4161 16.4993C26.4161 14.3859 25.6771 12.3094 24.3343 10.656C24.2814 10.59 24.2128 10.5725 24.1638 10.5706C24.1246 10.5687 24.0462 10.5745 23.9795 10.6405L19.9198 14.6596C19.1141 15.4572 18.0576 15.855 16.999 15.855C15.9424 15.855 14.8839 15.4572 14.0782 14.6596L10.0205 10.6385C9.96169 10.5784 9.89112 10.5687 9.84995 10.5687Z" fill="url(#logo_light_mode_mobile)"/>
<defs>
<linearGradient id="logo_light_mode_mobile" x1="6" y1="16.4993" x2="28" y2="16.4993" gradientUnits="userSpaceOnUse">
<stop stop-color="#0301F7"/>
<stop offset="0.13" stop-color="#2301EA"/>
<stop offset="0.33" stop-color="#5001D8"/>
<stop offset="0.52" stop-color="#7300CA"/>
<stop offset="0.7" stop-color="#8C00C0"/>
<stop offset="0.87" stop-color="#9C00BA"/>
<stop offset="1" stop-color="#A100B8"/>
</linearGradient>
</defs>
</svg>
