<?xml version="1.0" encoding="utf-8"?>
<!-- Generator: Adobe Illustrator 26.0.3, SVG Export Plug-In . SVG Version: 6.00 Build 0)  -->
<svg version="1.1" id="Layer_1" xmlns="http://www.w3.org/2000/svg" xmlns:xlink="http://www.w3.org/1999/xlink" x="0px" y="0px"
	 viewBox="0 0 1000 500" style="enable-background:new 0 0 1000 500;" xml:space="preserve">
<style type="text/css">
	.st0{fill:#F5F5F2;}
	.st1{fill:url(#SVGID_1_);}
</style>
<g id="VTHqXA.tif">
	<g>
		<path class="st0" d="M803.1,272.8c2.5,2.7,4.9,5.2,7.3,7.6c2.4,2.4,5,4.8,7.4,7.2c2.7,2.7,5.3,5.4,8,8c2.1,2.1,4.3,4.2,6.5,6.3
			c0.3,0.3,0.6,0.8,0.6,1.2c0.1,2.5,0.1,5,0.1,7.5c0,1.1-0.4,1.6-1.7,1.6c-6.3-0.1-12.5-0.2-18.8,0c-2.3,0.1-3.7-0.8-5.1-2.3
			c-1.2-1.2-2.3-2.5-3.5-3.7c-1.6-1.6-3.2-3.3-4.8-4.9c-1.9-1.8-3.9-3.6-5.8-5.4c-1.2-1.2-2.2-2.5-3.4-3.7c-1.1-1.2-2.3-2.2-3.5-3.3
			c-1.6-1.6-3.1-3.2-4.7-4.8c-1.2-1.2-2.5-2.3-3.7-3.4c-1.1-1-2.3-2-3.2-3.2c-1.5-2.1-3.4-2.9-6.1-2.9c-12,0.1-23.9,0.1-35.9,0.1
			c-1.4,0-2,0.7-2,2.3c0,10.8,0,21.6,0,32.3c0,0.4,0,0.8,0,1.2c0.1,1.2-0.4,1.7-1.7,1.7c-6.3-0.1-12.6,0-19,0
			c-2.2,0-2.8-0.6-2.8-2.8c0-16.7,0-33.4,0-50.1c0-23.4,0-46.8,0-70.1c0-0.7,0.1-1.6,0.5-2.2c0.4-0.5,1.2-1,1.9-1
			c25.7,0,51.4,0,77,0c1.5,0,3,0,4.6,0.1c2.3,0.2,4.6,0.4,6.9,0.9c1.5,0.3,3,1.2,4.4,1.7c1.1,0.4,2.3,0.6,3.3,1.1
			c1.9,0.9,3.7,1.9,5.5,3c1.7,1,3.4,2,5,3.2c1.4,1,2.6,2.3,3.9,3.5c1.2,1.2,2.4,2.5,3.4,3.8c1,1.4,1.9,2.9,2.8,4.3
			c1,1.6,1.9,3.2,2.8,4.8c0.4,0.7,0.7,1.5,0.9,2.3c0.5,1.6,0.7,3.4,1.4,4.9c1.1,2.9,1,5.9,1.1,8.9c0.1,3.1,0.2,6.3-0.3,9.4
			c-0.5,3.1-1.8,6.1-2.8,9c-0.6,1.9-1.3,3.8-2.3,5.5c-1.1,2-2.6,3.7-4,5.5c-1.6,1.9-3.2,3.8-5.1,5.5c-1.6,1.5-3.6,2.5-5.4,3.8
			c-0.3,0.2-0.4,0.6-0.7,0.7c-1.3,0.8-2.7,1.5-4.1,2.2C806.4,271.3,804.8,272,803.1,272.8z M762,209.5c0-0.1,0-0.1,0-0.2
			c-9.7,0-19.3,0-29,0c-2.2,0-2.2,0-2.2,2.2c0,12.7,0,25.4,0,38.1c0,1.9,0.5,2.4,2.4,2.4c15.2,0,30.4,0,45.6,0
			c4.9,0,9.8,0.4,14.6-0.9c1.5-0.4,3-0.6,4.4-1.2c1.7-0.8,3.3-1.9,4.8-3.1c1.4-1.2,2.6-2.6,3.8-4.1c0.9-1.1,1.6-2.4,2.3-3.7
			c0.6-1,1.4-2.1,1.5-3.1c0.3-4.4,1.1-8.9-0.8-13.2c-0.5-1.1-1-2.3-1.8-3.2c-1.3-1.7-2.8-3.3-4.3-4.8c-0.9-0.9-1.9-1.7-3-2.3
			c-1.2-0.6-2.5-1-3.8-1.4c-1.8-0.6-3.6-1.5-5.4-1.5C781.3,209.5,771.6,209.5,762,209.5z"/>
		<path class="st0" d="M843.9,249c0-20.1,0-40.2,0-60.3c0-2.6,0-2.6,2.6-2.6c25.6,0,51.2-0.1,76.8,0c3.6,0,7.2,0.5,10.7,1
			c1.7,0.3,3.4,1.2,5,1.8c1.2,0.4,2.5,0.6,3.6,1.2c2.2,1.1,4.4,2.3,6.4,3.7c2.5,1.7,4.8,3.6,7.1,5.6c1.2,1,2.1,2.3,3,3.4
			c1.3,1.6,2.7,3.1,3.8,4.9c0.9,1.5,1.6,3.1,2.3,4.7c0.7,1.5,1.3,2.9,1.9,4.4c0.4,1.2,0.8,2.4,1,3.6c0.7,4.3,1.6,8.7,1.1,13.1
			c-0.3,2.6-0.6,5.3-1.2,7.9c-0.5,2.1-1.2,4.1-2,6.1c-0.7,1.7-2.1,3.2-2.6,5c-0.7,2.1-2.2,3.5-3.4,5.2c-1,1.4-2.4,2.6-3.6,3.8
			c-1.5,1.5-2.9,3-4.5,4.3c-1.9,1.5-4,2.6-6.1,3.9c-1,0.6-2,1.2-3,1.8c-0.8,0.4-1.6,0.8-2.4,1c-1.6,0.5-3.3,0.9-5,1.3
			c-9.7,2.1-19.5,0.8-29.3,1c-11.9,0.2-23.8,0-35.7,0c-0.3,0-0.7,0-1,0c-1.9,0.1-2,0.2-2,2c0,11.2,0,22.4,0,33.5c0,1.7-0.2,2-1.9,2
			c-6.7,0-13.3,0-20,0c-1.1,0-1.4-0.4-1.4-1.4c0-0.7,0-1.5,0-2.2C843.9,288.8,843.9,268.9,843.9,249z M897.6,209.4
			C897.6,209.4,897.6,209.4,897.6,209.4c-9.5,0-18.9,0-28.4,0c-1.9,0-2,0-2,2c0,12.6,0,25.3,0,37.9c0,2.9,0,2.9,2.9,2.9
			c15.5,0,31.1,0,46.6-0.1c4,0,8,0.4,12.1-0.7c2.9-0.7,5.5-1.6,8-3.2c2.7-1.8,5-3.9,6.8-6.6c1.6-2.3,2.5-5,3.1-7.7
			c0.8-3.7,0.2-7.3-1-10.9c-0.3-0.8-0.5-1.6-1-2.3c-0.9-1.3-1.9-2.6-3-3.8c-1.1-1.2-2.2-2.5-3.6-3.3c-1.6-1-3.5-1.8-5.3-2.4
			c-2.4-0.8-4.9-1.7-7.3-1.7C916.1,209.3,906.9,209.4,897.6,209.4z"/>
		<path class="st0" d="M571.7,302.8c0-1.9,0.2-3.9-0.1-5.7c-0.3-2.3,0.9-3.7,2.3-5.1c1.9-1.9,3.8-3.8,5.7-5.6
			c2.3-2.2,4.6-4.4,6.9-6.7c2.2-2.2,4.3-4.5,6.5-6.7c1.2-1.2,2.5-2.3,3.8-3.5c1.5-1.5,2.8-3,4.3-4.5c1.3-1.3,2.6-2.4,3.9-3.7
			c1.5-1.5,2.9-3,4.3-4.4c1.9-1.9,3.8-3.8,5.7-5.7c0.7-0.7,1.5-1.4,2.2-2.2c0.2-0.2,0.2-0.7,0-0.8c-1.1-1.1-2.4-2.1-3.5-3.2
			c-1.5-1.5-2.9-3-4.4-4.5c-1.3-1.3-2.6-2.4-3.9-3.7c-1.1-1.1-2.2-2.3-3.3-3.4c-1.6-1.6-3.3-3.1-4.8-4.7c-1.5-1.5-2.9-3.2-4.4-4.7
			c-1.9-1.9-3.9-3.6-5.8-5.5c-1.8-1.8-3.5-3.6-5.3-5.4c-1.9-1.9-3.8-3.8-5.7-5.7c-1.3-1.3-2.6-2.6-3.8-4c-0.4-0.4-0.7-1.1-0.7-1.7
			c-0.1-4.7,0-9.3,0-14c0-1.1,0.3-1.7,1.6-1.7c4.6,0.1,9.2,0.1,13.8,0.1c1,0,1.6,0.2,2.1,1.3c0.4,1,1.5,1.6,2.3,2.4c2,2,3.9,4,5.9,6
			c1.3,1.3,2.8,2.6,4.1,4c1.4,1.4,2.7,2.9,4.1,4.3c1.5,1.4,3.1,2.7,4.5,4.1c3.6,3.6,7.2,7.3,10.8,10.9c2.3,2.3,4.8,4.4,7.1,6.7
			c1.6,1.5,3.2,3.1,4.7,4.7c1.6,1.6,1.7,1.6,3.1,0.1c2.3-2.4,4.7-4.7,7-7c1.8-1.9,3.5-3.9,5.4-5.8c1.9-1.9,4-3.6,5.9-5.4
			c1.9-1.9,3.5-3.9,5.4-5.8c1.8-1.8,3.7-3.4,5.5-5.2c1.6-1.6,3.1-3.3,4.7-4.8c1.5-1.5,3.2-2.9,4.7-4.4c1.5-1.4,2.8-3,4.3-4.4
			c0.9-0.8,2.1-1.7,3.2-1.7c4.5-0.2,8.9,0,13.4-0.1c1.3,0,1.7,0.5,1.7,1.7c0,4.5-0.1,9,0,13.5c0,1.9-1.5,2.7-2.5,3.8
			c-2.2,2.4-4.5,4.7-6.8,7c-2.1,2.1-4.2,4.1-6.2,6.1c-2.4,2.4-4.7,4.8-7.2,7.2c-2.8,2.7-5.6,5.4-8.4,8.1c-1,0.9-1.6,2.4-2.7,2.9
			c-2.2,1.1-3.4,3.2-5.1,4.7c-2.4,2.1-4.6,4.5-6.7,6.9c-1,1.1,0.6,1.5,1,1.9c1.8,2.1,3.9,3.9,5.9,5.9c1.8,1.8,3.7,3.6,5.5,5.4
			c2,2,3.9,4,5.9,5.9c1.9,1.8,3.9,3.5,5.7,5.3c1.9,1.8,3.6,3.8,5.4,5.7c1.1,1.2,2.3,2.2,3.4,3.4c2,2,3.9,4,5.9,6
			c1.8,1.8,3.6,3.5,5.5,5.2c1.1,0.9,1.5,1.9,1.5,3.4c-0.1,4.8,0,9.5,0,14.3c0,1.2-0.4,1.8-1.7,1.7c-4-0.1-7.9-0.1-11.9,0
			c-1.8,0.1-2.7-1.3-3.7-2.3c-2.2-2.1-4.2-4.4-6.4-6.5c-2.6-2.6-5.4-5.1-8-7.8c-2.8-2.8-5.4-5.9-8.4-8.4c-3.5-2.9-6.5-6.4-9.8-9.5
			c-2.4-2.2-4.6-4.6-6.9-6.8c-1.8-1.8-3.5-3.6-5.3-5.2c-0.3-0.3-1.5-0.2-1.9,0.2c-1.6,1.5-3.2,3.1-4.7,4.7c-1.5,1.6-3,3.2-4.6,4.7
			c-1.9,1.9-3.9,3.6-5.8,5.5c-1.2,1.1-2.2,2.3-3.4,3.5c-1.9,1.9-3.7,3.8-5.6,5.6c-1.2,1.2-2.4,2.4-3.6,3.6c-1.6,1.6-3.2,3.1-4.8,4.6
			c-1.1,1.1-2.2,2.2-3.2,3.2c-1.2,1.2-2.4,2.5-3.6,3.8c-1.6,1.6-3.1,3.4-4.8,4.9c-1.3,1.1-2.4,2.3-4.5,2.2c-3.7-0.2-7.4-0.1-11.2,0
			c-1.2,0-1.6-0.5-1.6-1.7C571.7,308,571.6,305.4,571.7,302.8C571.6,302.8,571.7,302.8,571.7,302.8z"/>
		<path class="st0" d="M388.7,222.6c5,0,10.1-0.2,15.1,0.1c2.4,0.1,4.8,0.8,7.1,1.8c1.3,0.5,2.7,0.8,3.9,1.3
			c1.7,0.8,3.4,1.7,5.1,2.6c1.5,0.8,3,1.6,4.4,2.6c0.9,0.6,1.7,1.5,2.5,2.3c2.3,2.3,4.6,4.5,6.8,6.9c0.9,1,1.6,2.4,2.3,3.6
			c1,1.8,2.1,3.7,2.9,5.6c0.6,1.2,0.9,2.6,1.3,3.9c0.6,2.2,1.7,4.4,1.8,6.6c0.2,5,0.1,10-0.1,15c0,1.3-0.5,2.6-0.8,3.9
			c-0.3,1.2-0.7,2.5-1.2,3.6c-1.1,2.5-2,5-3.6,7.2c-0.9,1.3-1.5,2.9-2.3,4.3c-0.6,0.9-1.6,1.6-2.4,2.5c-1.3,1.4-2.5,3-3.8,4.3
			c-0.9,1-2.1,1.7-3.2,2.5c-1.3,1-2.7,2-4,2.9c-0.7,0.5-1.4,0.9-2.2,1.2c-2,0.8-4.1,1.5-6.2,2.2c-1.7,0.6-3.3,1.4-5,1.8
			c-1.4,0.3-3,0-4.4,0.3c-8.1,1.6-16.3,0.5-24.5,0.7c-2.7,0.1-5.4-0.4-8-1c-2.3-0.5-4.6-1.1-6.8-2c-2.4-1-4.6-2.4-6.9-3.7
			c-1.7-1-3.4-2.1-5-3.3c-1.9-1.6-3.7-3.4-5.3-5.2c-1.7-2-3.4-4.1-4.9-6.2c-0.9-1.4-1.5-3-2.2-4.5c-1-2.3-2-4.7-3-7
			c-0.1-0.2-0.1-0.4-0.1-0.6c-0.8-4.5-1.3-9.1-1.1-13.7c0.1-1.3-0.1-2.7,0.2-4c0.4-2,1-4,1.6-6c0.4-1.3,0.9-2.5,1.2-3.8
			c0.3-1.6,1.5-2.8,1.8-4.1c0.5-1.8,1.7-2.9,2.5-4.4c1.1-2.1,2.7-3.9,4.3-5.6c1.5-1.7,3.1-3.3,4.8-4.8c1-0.9,2.3-1.6,3.4-2.4
			c2-1.3,4-2.5,6.1-3.7c0.9-0.5,1.9-0.8,2.9-1.1c1.5-0.5,2.9-1,4.4-1.3c2.6-0.5,5.2-1.3,8-1.2C380.5,222.6,384.6,222.5,388.7,222.6
			C388.7,222.5,388.7,222.5,388.7,222.6z M389.7,288.9c4.3-0.4,9.5,0.9,14.5-1.1c1.1-0.4,2.2-0.7,3.2-1.3c1.3-0.8,2.6-1.5,3.7-2.7
			c1.4-1.7,3.1-3.1,4.5-4.8c0.6-0.8,0.7-2,1.3-2.9c1.2-1.9,1.9-3.8,1.9-6c0-2.5,0-5.1,0-7.6c0-0.3,0-0.6-0.1-0.9
			c-0.9-2-2-3.9-2.8-5.9c-0.8-2-2.3-3.3-3.8-4.7c-1.3-1.2-2.3-2.8-4.4-3.1c-1.3-0.2-2.5-1.4-3.8-1.7c-2.6-0.5-5.2-0.9-7.8-1
			c-5.6-0.1-11.3-0.1-16.9,0c-1.9,0-3.9,0.6-5.8,0.9c-0.1,0-0.3,0.1-0.4,0.2c-1,0.5-1.8,1.4-2.9,1.6c-2.3,0.5-3.8,2.1-5.3,3.5
			c-1.9,1.8-3.6,3.9-4.5,6.5c-0.7,2.1-1.8,4.1-1.8,6.4c0,2.2,0,4.4,0,6.6c0,0.5,0.1,1,0.3,1.4c0.5,1.3,1,2.7,1.7,4
			c0.5,1.1,1.1,2.2,1.8,3.2c1,1.3,2.4,2.3,3.4,3.7c1.8,2.4,4.4,3.4,6.9,4.4c2.3,0.9,4.9,1.6,7.6,1.4
			C383,288.7,386,288.9,389.7,288.9z"/>
		<path class="st0" d="M477,227.4c1.6-0.7,2.9-1.2,4.1-1.8c1.4-0.6,2.8-1.2,4.1-1.8c0.1,0,0.2-0.1,0.3-0.1c2.4-0.4,4.7-1.1,7.1-1.2
			c9.8-0.1,19.6-0.1,29.4,0c1,0,2.1,0.4,3.1,0.7c0.5,0.1,0.9,0.2,1.4,0.3c2.8,0.4,5.4,1.3,7.8,2.7c1.6,1,3.4,1.6,5.1,2.4
			c0.4,0.2,0.7,0.7,1.1,1c2.2,1.7,4.4,3.3,6.6,5.1c1.1,1,2.1,2.1,3,3.3c1.3,1.6,2.7,3.3,3.9,5c0.5,0.7,0.8,1.5,1.2,2.2
			c1,2.1,2,4.1,2.9,6.2c0.4,1,0.8,2.1,1,3.1c0.5,2.2,1.2,4.3,1.2,6.5c0.1,16.2,0.1,32.4,0.1,48.5c0,2.4,0,2.4-2.4,2.4
			c-6.3,0-12.6,0-19,0c-1.2,0-2-0.8-2-1.9c0.1-3.6,0.1-7.2,0.1-10.7c0-9,0-17.9,0-26.9c0-1.1,0.3-2.3,0.4-3.4c0-0.4,0-0.8,0-1.2
			c-0.2-1.4-0.6-2.8-0.7-4.3c-0.1-2.2-0.7-4.2-1.8-6c-0.8-1.3-1.4-2.8-2.3-3.9c-1.9-2.4-4.1-4.3-6.8-5.8c-2.3-1.3-4.6-1.6-7.1-2.1
			c-7.3-1.5-14.6-0.5-21.9-0.5c-2.1,0-4.4,0.7-6.6,1.4c-2.8,1-5,2.8-7.3,4.5c-1.4,1-2.4,2.6-3.3,4.1c-0.9,1.6-1.7,3.3-2.4,5.1
			c-1.2,3.2-1,6.5-1,9.7c-0.1,12.7-0.1,25.4-0.1,38.1c0,0.4,0,0.9,0,1.3c-0.2,1.8-1,2.7-2.8,2.7c-6.2,0-12.4-0.1-18.7,0
			c-1.5,0-1.7-0.6-1.7-1.8c0-26.2,0-52.4,0-78.5c0-2.7,0-5.4,0-8.1c0-1,0.3-1.4,1.3-1.4c6.7,0,13.3,0,20,0c1.4,0,1.7,0.9,1.5,2.3
			C476,225.6,476.7,226.5,477,227.4z"/>
	</g>
</g>
<g>
	<linearGradient id="SVGID_1_" gradientUnits="userSpaceOnUse" x1="24.8499" y1="267.326" x2="317.2856" y2="267.326">
		<stop  offset="0" style="stop-color:#0301F7"/>
		<stop  offset="0.1269" style="stop-color:#2301EA"/>
		<stop  offset="0.3279" style="stop-color:#5001D8"/>
		<stop  offset="0.5215" style="stop-color:#7300CA"/>
		<stop  offset="0.7029" style="stop-color:#8C00C0"/>
		<stop  offset="0.8674" style="stop-color:#9C00BA"/>
		<stop  offset="1" style="stop-color:#A100B8"/>
	</linearGradient>
	<path class="st1" d="M74.7,369.7c-0.2,0-0.5,0-0.7,0c-5.1-0.2-10-2.5-13.4-6.4c-23.1-26.6-35.7-60.6-35.7-95.8
		c0-35.3,12.8-69.4,36-96c3.4-3.9,8.2-6.2,13.4-6.4c5.1-0.2,10.2,1.8,13.8,5.4l55.4,54.9c7.4,7.3,17.2,11.4,27.6,11.4
		c10.4,0,20.2-4,27.6-11.4l55.4-54.9c3.6-3.6,8.7-5.6,13.8-5.4c5.1,0.2,10,2.5,13.4,6.4c23.2,26.6,36,60.7,36,96
		c0,35.2-12.7,69.2-35.7,95.8c-3.4,3.9-8.2,6.2-13.4,6.4c-5.1,0.2-10.2-1.8-13.8-5.4l-55.6-55.1c-7.4-7.3-17.2-11.4-27.6-11.4
		c-10.4,0-20.2,4-27.6,11.4l-55.6,55.1C84.3,367.7,79.6,369.7,74.7,369.7z M71.3,347.6C71.3,347.6,71.3,347.6,71.3,347.6L71.3,347.6
		L71.3,347.6z M79.6,195.1c-2.4-2.3-6.3-2-8.2,0.7c-15,20.8-23.1,45.8-23.1,71.7c0,25.7,8.1,50.7,22.9,71.4c1.9,2.7,5.9,3,8.2,0.7
		l47.5-47c11.8-11.7,27.5-18.1,44.1-18.1s32.3,6.4,44.1,18.1l47.5,47c2.4,2.3,6.3,2,8.2-0.7c14.8-20.7,22.9-45.7,22.9-71.4
		c0-25.8-8.1-50.9-23.1-71.7c-1.9-2.7-5.9-3-8.2-0.7l-47.3,46.9c-11.8,11.7-27.5,18.1-44.1,18.1c-16.6,0-32.3-6.4-44.1-18.1
		L79.6,195.1z"/>
</g>
</svg>
